<svg width="19" height="19" viewBox="0 0 19 19" fill="none" xmlns="http://www.w3.org/2000/svg">
<path fill-rule="evenodd" clip-rule="evenodd" d="M18.942 13.4173C18.7863 16.8702 16.8638 18.7844 13.4174 18.9431C12.4041 18.989 12.0799 19 9.5 19C6.92012 19 6.59684 18.989 5.58264 18.9431C2.12983 18.7844 0.214613 16.8675 0.0570489 13.4173C0.0108665 12.4042 0 12.0803 0 9.5C0 6.91969 0.0108665 6.59669 0.0579544 5.58273C0.216424 2.12977 2.13345 0.215638 5.58355 0.0568917C6.59684 0.0110113 6.92012 0 9.5 0C12.0799 0 12.4041 0.0110113 13.4183 0.0578093C16.8711 0.216556 18.7881 2.13711 18.943 5.58365C18.9891 6.59669 19 6.91969 19 9.5C19 12.0803 18.9891 12.4042 18.942 13.4173ZM9.5 4.62199C6.80602 4.62199 4.62187 6.8059 4.62187 9.5C4.62187 12.1941 6.80602 14.3789 9.5 14.3789C12.194 14.3789 14.3781 12.195 14.3781 9.5C14.3781 6.8059 12.194 4.62199 9.5 4.62199ZM14.571 3.28871C13.9417 3.28871 13.43 3.79982 13.43 4.4293C13.43 5.05877 13.9417 5.56897 14.571 5.56897C15.2013 5.56897 15.7111 5.05877 15.7111 4.4293C15.7111 3.79982 15.2013 3.28871 14.571 3.28871ZM9.5 12.6667C7.75141 12.6667 6.33333 11.2499 6.33333 9.5C6.33333 7.75104 7.75141 6.33333 9.5 6.33333C11.2486 6.33333 12.6667 7.75104 12.6667 9.5C12.6667 11.2499 11.2486 12.6667 9.5 12.6667Z" fill="#C8C8C8"/>
</svg>
