<svg width="28" height="16" viewBox="0 0 28 16" fill="none" xmlns="http://www.w3.org/2000/svg">
<path d="M13.7086 15.9881L15.3268 15.9237C15.3268 15.9237 15.832 15.8687 16.0898 15.5913C16.3348 15.3327 16.3348 14.854 16.3348 14.854C16.3348 14.854 16.2986 12.5988 17.3486 12.2676C18.3835 11.9387 19.696 14.4444 21.0948 15.4076C22.1635 16.1437 22.9673 15.9857 22.9673 15.9857L26.7135 15.9343C26.7135 15.9343 28.6759 15.8114 27.7483 14.2653C27.6772 14.1425 27.2222 13.1243 24.9822 11.0352C22.6348 8.85718 22.9498 9.20828 25.7708 5.43275C27.4847 3.13302 28.1859 1.72744 27.9584 1.13056C27.7647 0.568798 26.4883 0.708068 26.4883 0.708068L22.286 0.744349C22.286 0.744349 21.971 0.708069 21.7435 0.849681C21.516 0.988952 21.3771 1.30729 21.3771 1.30729C21.3771 1.30729 20.7098 3.09674 19.8185 4.60766C17.925 7.80153 17.1725 7.97708 16.875 7.76642C16.1703 7.30881 16.3511 5.91727 16.3511 4.92014C16.3511 1.82926 16.8225 0.531347 15.4399 0.197799C14.9849 0.0912973 14.6454 0.0222464 13.4741 0.00352087C11.9691 -0.0128639 10.6998 0.0152238 9.97992 0.367498C9.50742 0.605078 9.13991 1.13056 9.35108 1.15748C9.63108 1.19259 10.2599 1.32835 10.5924 1.78596C11.0299 2.37815 11.0113 3.70064 11.0113 3.70064C11.0113 3.70064 11.2574 7.34743 10.4349 7.80036C9.85742 8.10699 9.08741 7.47266 7.4074 4.57489C6.5499 3.10025 5.90123 1.45007 5.90123 1.45007C5.90123 1.45007 5.77873 1.15046 5.55239 0.974908C5.28756 0.781801 4.90256 0.711579 4.90256 0.711579L0.895034 0.746689C0.895034 0.746689 0.30003 0.765416 0.0911958 1.02757C-0.102472 1.25579 0.0725286 1.74734 0.0725286 1.74734C0.0725286 1.74734 3.20621 9.10529 6.7599 12.8106C10.0149 16.2069 13.7086 15.9881 13.7086 15.9881Z" fill="#C8C8C8"/>
</svg>
